# xmcd CD database file
#
# Track frame offsets:
#	150
#	17007
#	41525
#	64152
#	80760
#	94195
#	121287
#	139560
#	153712
#	183152
#	206807
#	231922
#	253357
#
# Disc length: 3628 seconds
#
# Revision: 2
# Processed by: cddbd v1.5.1PL2 Copyright (c) Steve Scherf et al.
# Submitted via: CDex 1.51
#
DISCID=b70e2a0d
DTITLE=Various Artist - WEST COAST JAZZ
DYEAR=2002
DGENRE=Jazz
TTITLE0=LOOK FOR THE SILVER LINING /Dave Brubeck
TTITLE1=YOU'D BE SO NICE TO COME HOME TO /Art Pepper
TTITLE2=ALL THE THINGS YOU ARE /Hampton Hawes
TTITLE3=YOU MAKE ME FEEL SO YOUNG /Chet Baker
TTITLE4=MY FUNNY VALENTINE /Gerry Mulligan
TTITLE5=A WALKIN' THING /Benny Carter
TTITLE6=ON GREEN DOLPHIN STREET /Barney Kessel, Ray Brown, Shelly Manne
TTITLE7=CAST YOUR FATE TO THE WIND /Vince Guaraldi
TTITLE8=WAY OUT WEST /Sonny Rollins
TTITLE9=A LIGHT GROOVE /Cal Tjader
TTITLE10=I'LL CATCH THE SUN /Sonny Criss
TTITLE11=ONE FOR MY BABY(AND ONE MORE FOR THE ROAD) /Gerald Wiggins Trio
TTITLE12=GET ME TO THE CHURCH ON TIME /Shelly Manne
EXTD=Compilation YEAR: 2002
EXTT0=
EXTT1=
EXTT2=
EXTT3=
EXTT4=
EXTT5=
EXTT6=
EXTT7=
EXTT8=
EXTT9=
EXTT10=
EXTT11=
EXTT12=
PLAYORDER=
